<?xml version="1.0" encoding="UTF-8"?>
<svg id="Layer_1" data-name="Layer 1" xmlns="http://www.w3.org/2000/svg" xmlns:xlink="http://www.w3.org/1999/xlink" viewBox="0 0 1080 1080">
  <defs>
    <style>
      .cls-1, .cls-2, .cls-3, .cls-4, .cls-5, .cls-6, .cls-7, .cls-8, .cls-9, .cls-10, .cls-11, .cls-12, .cls-13, .cls-14, .cls-15, .cls-16, .cls-17 {
        stroke-width: 0px;
      }

      .cls-1, .cls-7, .cls-10, .cls-14 {
        fill-rule: evenodd;
      }

      .cls-1, .cls-9 {
        fill: #004f7f;
      }

      .cls-2 {
        fill: url(#linear-gradient);
      }

      .cls-3 {
        fill: url(#linear-gradient-6);
      }

      .cls-18 {
        mask: url(#mask-2);
      }

      .cls-19 {
        clip-path: url(#clippath-2);
      }

      .cls-20 {
        clip-path: url(#clippath-6);
      }

      .cls-4 {
        fill: url(#linear-gradient-11);
      }

      .cls-21 {
        mask: url(#mask-3);
      }

      .cls-5 {
        fill: url(#linear-gradient-5);
      }

      .cls-6 {
        fill: none;
      }

      .cls-22 {
        clip-path: url(#clippath-7);
      }

      .cls-23 {
        clip-path: url(#clippath-1);
      }

      .cls-24 {
        clip-path: url(#clippath-4);
      }

      .cls-7 {
        fill: #454546;
      }

      .cls-8 {
        fill: url(#linear-gradient-2);
      }

      .cls-10 {
        fill: #fff;
      }

      .cls-11 {
        fill: url(#linear-gradient-7);
      }

      .cls-25 {
        mask: url(#mask-4);
      }

      .cls-12 {
        fill: url(#linear-gradient-3);
      }

      .cls-26 {
        clip-path: url(#clippath-9);
      }

      .cls-27 {
        clip-path: url(#clippath);
      }

      .cls-13 {
        fill: url(#linear-gradient-9);
      }

      .cls-14 {
        fill: #f68921;
      }

      .cls-28 {
        clip-path: url(#clippath-3);
      }

      .cls-15 {
        fill: url(#linear-gradient-8);
      }

      .cls-29 {
        clip-path: url(#clippath-8);
      }

      .cls-30 {
        mask: url(#mask-1);
      }

      .cls-31 {
        mask: url(#mask);
      }

      .cls-32 {
        clip-path: url(#clippath-5);
      }

      .cls-16 {
        fill: url(#linear-gradient-10);
      }

      .cls-33 {
        clip-path: url(#clippath-10);
      }

      .cls-17 {
        fill: url(#linear-gradient-4);
      }
    </style>
    <clipPath id="clippath">
      <path class="cls-6" d="m662.72,458.5c-42.84,9.68-71.89,8.23-111.59-.48-6.29-1.45-7.75-1.94-7.75-1.94,7.26-7.02,38.24-40.18,38.49-40.42,2.42-2.18,10.41-7.26,11.86-7.26,5.08-.24,28.8,16.7,86.66,7.02,13.07,9.44,39.45,28.08,39.45,28.08-16.46,4.6-36.79,10.41-57.12,15.01m-164.84,66.32c35.1-18.4,50.35-32.68,77.46-59.55,43.09,8.96,85.93-1.21,123.93-14.52-78.67,31.71-142.09,136.03-227.77,140.88-53.01,3.15-95.61-39.94-111.34-87.14,33.16,35.34,96.58,42.12,137.73,20.33Zm10.65-262.63c-15.01,49.14-.24,94.4,42.36,124.17-21.06,16.94-36.79,28.8-61.72,43.57-74.31-85.93,6.78-172.83,26.63-185.41-3.15,5.81-5.57,11.38-7.26,17.67Z"/>
    </clipPath>
    <linearGradient id="linear-gradient" x1="473.83" y1="485.85" x2="572.97" y2="749.16" gradientTransform="translate(0 1080.72) scale(1 -1)" gradientUnits="userSpaceOnUse">
      <stop offset="0" stop-color="#123154"/>
      <stop offset="1" stop-color="#054c7d"/>
    </linearGradient>
    <clipPath id="clippath-1">
      <path class="cls-6" d="m447.54,569.36v-.24c-73.1-22.27-80.6-55.19-86.41-62.69,19.12,48.17,56.88,83.75,105.54,84.23-.24,0-15.98-18.15-19.12-21.3"/>
    </clipPath>
    <clipPath id="clippath-2">
      <path class="cls-6" d="m447.54,569.36v-.24c-73.1-22.27-80.6-55.19-86.41-62.69,19.12,48.17,56.88,83.75,105.54,84.23-.24,0-15.98-18.15-19.12-21.3"/>
    </clipPath>
    <linearGradient id="linear-gradient-2" x1="338.78" y1="468.17" x2="388.88" y2="507.24" gradientTransform="translate(34.06 1048.53) scale(1 -1)" gradientUnits="userSpaceOnUse">
      <stop offset="0" stop-color="#fff"/>
      <stop offset="1" stop-color="#010101"/>
    </linearGradient>
    <mask id="mask" x="360.88" y="506.42" width="105.78" height="84.23" maskUnits="userSpaceOnUse">
      <g id="SVGID">
        <g class="cls-19">
          <rect class="cls-8" x="360.88" y="506.42" width="105.54" height="84.23"/>
        </g>
      </g>
    </mask>
    <linearGradient id="linear-gradient-3" x1="372.83" y1="500.36" x2="422.94" y2="539.43" gradientTransform="translate(0 1080.72) scale(1 -1)" gradientUnits="userSpaceOnUse">
      <stop offset="0" stop-color="#fff"/>
      <stop offset="1" stop-color="#fff"/>
    </linearGradient>
    <clipPath id="clippath-3">
      <path class="cls-6" d="m496.19,454.38c-43.57,25.66-88.35,20.09-110.13-36.55.97,43.81,15.49,63.42,35.82,72.86,39.94,18.64,82.54-11.62,91.01-19.36-5.57-5.33-15.01-13.8-16.7-16.94"/>
    </clipPath>
    <clipPath id="clippath-4">
      <path class="cls-6" d="m496.19,454.38c-43.57,25.66-88.35,20.09-110.13-36.55.97,43.81,15.49,63.42,35.82,72.86,39.94,18.64,82.54-11.62,91.01-19.36-5.57-5.33-15.01-13.8-16.7-16.94"/>
    </clipPath>
    <linearGradient id="linear-gradient-4" x1="320.71" y1="510.02" x2="444.48" y2="538.37" gradientTransform="translate(51.02 985.36) scale(1 -1)" xlink:href="#linear-gradient-2"/>
    <mask id="mask-1" x="386.05" y="417.83" width="126.84" height="91.74" maskUnits="userSpaceOnUse">
      <g id="SVGID-2" data-name="SVGID">
        <g class="cls-24">
          <rect class="cls-17" x="386.05" y="418.07" width="126.84" height="78.91"/>
        </g>
      </g>
    </mask>
    <linearGradient id="linear-gradient-5" x1="373.09" y1="599.41" x2="496.87" y2="627.76" xlink:href="#linear-gradient-3"/>
    <clipPath id="clippath-5">
      <path class="cls-6" d="m468.11,393.87c3.39-.73,18.15-16.22,19.85-21.3-14.77-46.96,7.02-93.43,25.66-126.11-10.41,7.75-37.52,39.21-46.47,66.08-6.05,17.91-14.28,47.44.97,81.33"/>
    </clipPath>
    <clipPath id="clippath-6">
      <path class="cls-6" d="m468.11,393.87c3.39-.73,18.15-16.22,19.85-21.3-14.77-46.96,7.02-93.43,25.66-126.11-10.41,7.75-37.52,39.21-46.47,66.08-6.05,17.91-14.28,47.44.97,81.33"/>
    </clipPath>
    <linearGradient id="linear-gradient-6" x1="365.3" y1="684.93" x2="396.35" y2="553.29" gradientTransform="translate(100.32 916.05) scale(1 -1)" xlink:href="#linear-gradient-2"/>
    <mask id="mask-2" x="452.86" y="246.46" width="61" height="147.41" maskUnits="userSpaceOnUse">
      <g id="SVGID-3" data-name="SVGID">
        <g class="cls-20">
          <rect class="cls-3" x="459.4" y="246.46" width="54.46" height="147.41"/>
        </g>
      </g>
    </mask>
    <linearGradient id="linear-gradient-7" x1="462.53" y1="848.86" x2="493.58" y2="717.23" xlink:href="#linear-gradient-3"/>
    <clipPath id="clippath-7">
      <path class="cls-6" d="m680.39,415.89c-.24,32.19-17.19,32.68-30.5,39.94-7.26.97-7.5,2.42,2.9,4.36,10.17-2.42,58.34-14.28,65.84-16.94,0,0-20.09-13.8-38.24-27.35"/>
    </clipPath>
    <clipPath id="clippath-8">
      <path class="cls-6" d="m680.39,415.89c-.24,32.19-17.19,32.68-30.5,39.94-7.26.97-7.5,2.42,2.9,4.36,10.17-2.42,58.34-14.28,65.84-16.94,0,0-20.09-13.8-38.24-27.35"/>
    </clipPath>
    <linearGradient id="linear-gradient-8" x1="519.48" y1="535.66" x2="426.15" y2="516.15" gradientTransform="translate(224.9 960.58) scale(1 -1)" xlink:href="#linear-gradient-2"/>
    <mask id="mask-3" x="642.15" y="415.89" width="76.49" height="44.3" maskUnits="userSpaceOnUse">
      <g id="SVGID-4" data-name="SVGID">
        <g class="cls-29">
          <rect class="cls-15" x="644.57" y="415.89" width="74.07" height="44.3"/>
        </g>
      </g>
    </mask>
    <linearGradient id="linear-gradient-9" x1="744.32" y1="656.08" x2="651" y2="636.56" xlink:href="#linear-gradient-3"/>
    <clipPath id="clippath-9">
      <path class="cls-6" d="m575.34,354.17c0,1.94.48,8.23,1.94,9.44,1.45-5.57,30.5-23.24,47.2-23.24-.24-1.45,10.65-15.98,11.86-17.91-16.46-8.23-31.95-16.46-45.02-28.08-1.94,4.84-15.98,38.24-15.98,59.79"/>
    </clipPath>
    <clipPath id="clippath-10">
      <path class="cls-6" d="m575.34,354.17c0,1.94.48,8.23,1.94,9.44,1.45-5.57,30.5-23.24,47.2-23.24-.24-1.45,10.65-15.98,11.86-17.91-16.46-8.23-31.95-16.46-45.02-28.08-1.94,4.84-15.98,38.24-15.98,59.79"/>
    </clipPath>
    <linearGradient id="linear-gradient-10" x1="391.42" y1="575.16" x2="448.7" y2="561.6" gradientTransform="translate(178.41 895.64) scale(1 -1)" xlink:href="#linear-gradient-2"/>
    <mask id="mask-4" x="575.34" y="294.38" width="61" height="69.23" maskUnits="userSpaceOnUse">
      <g id="SVGID-5" data-name="SVGID">
        <g class="cls-33">
          <rect class="cls-16" x="575.34" y="294.38" width="61" height="69.23"/>
        </g>
      </g>
    </mask>
    <linearGradient id="linear-gradient-11" x1="569.83" y1="760.24" x2="627.13" y2="746.69" xlink:href="#linear-gradient-3"/>
  </defs>
  <g>
    <g class="cls-27">
      <rect class="cls-2" x="359.91" y="244.52" width="359.69" height="350.49"/>
    </g>
    <path class="cls-14" d="m630.77,395.08c-14.04-.24-43.33,5.57-55.43,18.4-25.66,27.35-51.07,58.09-89.32,76.25-28.8,13.56-66.56,11.38-86.17-15.25-11.38-15.49-14.52-39.7-14.52-58.58,11.13,15.73,22.51,30.98,43.09,35.34,26.14,5.57,72.13-18.64,95.13-35.34,21.3-15.49,30.5-24.69,49.14-40.67,2.18-1.94,5.08-3.63,7.5-5.33-1.69-2.9-4.84-7.02-5.33-10.41-2.66-18.15,9.44-49.38,15.98-67.05,9.92,7.99,12.83,10.89,25.17,17.91,18.64,10.65,24.69,12.1,43.57,15.49-5.57,23.72-11.38,47.2-16.7,70.92-3.63-1.21-7.99-1.69-12.1-1.69"/>
    <g class="cls-23">
      <g class="cls-31">
        <rect class="cls-12" x="360.88" y="506.42" width="105.54" height="84.23"/>
      </g>
    </g>
    <g class="cls-28">
      <g class="cls-30">
        <rect class="cls-5" x="386.05" y="418.07" width="126.84" height="91.5"/>
      </g>
    </g>
    <g class="cls-32">
      <g class="cls-18">
        <rect class="cls-11" x="452.86" y="246.46" width="61" height="147.41"/>
      </g>
    </g>
    <g class="cls-22">
      <g class="cls-21">
        <rect class="cls-13" x="642.15" y="415.89" width="76.25" height="44.3"/>
      </g>
    </g>
    <path class="cls-10" d="m669.26,458.01c.24.24.97-.48.24-.24,0,0-.73-.24-.24.24"/>
    <path class="cls-10" d="m667.56,453.17c.24,0,.24-.24,0,0,.24-.24,0,0,0,0"/>
    <g class="cls-26">
      <g class="cls-25">
        <rect class="cls-4" x="575.34" y="294.38" width="61" height="69.23"/>
      </g>
    </g>
  </g>
  <g>
    <path class="cls-1" d="m377.8,742.28c3.65,0,5.31,1.66,5.31,5.14s-1.83,4.98-5.31,4.98-5.31-1.66-5.31-4.98c-.17-3.32,1.66-5.14,5.31-5.14h0Z"/>
    <path class="cls-1" d="m78.62,683.54c-3.65,0-5.31-1.66-5.31-4.98s1.83-5.14,5.31-5.14,5.48,1.66,5.48,5.14c0,3.32-1.83,4.98-5.48,4.98Z"/>
    <path class="cls-1" d="m94.55,683.54c-3.65,0-5.48-1.66-5.48-4.98s1.83-5.14,5.48-5.14,5.31,1.66,5.31,5.14-1.66,4.98-5.31,4.98Z"/>
    <path class="cls-1" d="m130.39,691.83v36.84h-24.39v-36.84h-15.6c-15.1,0-28.38,7.46-28.38,23.23,0,13.78,10.13,20.58,23.56,20.58h54.1v-43.81h-9.29Zm-33.36,36.67h-11.77c-9.46,0-14.11-4.47-14.11-13.6,0-4.98,1.83-8.96,5.14-11.79,5.45-4.61,13.16-4.31,20.74-4.31v29.7Z"/>
    <path class="cls-1" d="m126.24,683.54c-3.65,0-5.31-1.66-5.31-4.98s1.83-5.14,5.31-5.14,5.48,1.66,5.48,5.14-1.83,4.98-5.48,4.98Z"/>
    <path class="cls-1" d="m142.17,683.54c-3.65,0-5.48-1.66-5.48-4.98s1.83-5.14,5.48-5.14,5.31,1.66,5.31,5.14-1.83,4.98-5.31,4.98Z"/>
    <rect class="cls-9" x="157.27" y="666.94" width="9.29" height="68.7"/>
    <path class="cls-1" d="m375.15,691.66v36.84h-30.21c14.11-8.62,11.45-37.67-15.26-37.67s-28.22,27.55-20.92,37.67h-11.28c-3.48,0-6.81-.33-9.13-2.32-3.82-2.99-2.82-8.13-2.82-12.44,0-15.27-7.97-22.91-23.73-22.91-12.44,0-22.06,6.81-28.7,20.41v-16.75h-8.8v34.01h-12.77c-5.65,0-10.29-2.82-10.29-8.62v-28.04h-8.64v46.47c0,12.77-11.11,14.76-19.74,9.29l-4.15,5.47c7.81,5.65,21.08,6.3,27.71-.83,5.49-5.98,4.82-13.78,4.82-21.74.83,1.59,2.07,2.79,3.71,3.64,1.64.84,3.67,1.33,6.07,1.51h21.9v-6.97c2.83,4.65,6.31,6.97,10.63,6.97h41.81v-5.15c.84,1.59,2.08,2.79,3.72,3.64,1.63.84,3.66,1.33,6.07,1.51h65.54v-.17h23.73v-43.81h-9.29Zm-98.74,36.84h-33.34c-5.65,0-9.13-2.66-9.96-7.8,7.13-15.1,15.92-22.73,26.55-22.73s16.75,5.47,16.75,16.26v14.27Zm63.06-4.15c-5.31,5.31-14.27,4.32-21.57,4.32-2.5-2.83-3.66-7.3-3.66-13.44,0-17.59,17.43-21.41,25.56-13.44,5.47,5.47,4.98,17.26-.33,22.56Z"/>
    <path class="cls-1" d="m441.85,683.54c-3.65,0-5.31-1.66-5.31-4.98s1.83-5.14,5.31-5.14,5.48,1.66,5.48,5.14c-.17,3.32-1.99,4.98-5.48,4.98Z"/>
    <path class="cls-1" d="m457.61,683.54c-3.65,0-5.48-1.66-5.48-4.98s1.83-5.14,5.48-5.14,5.31,1.66,5.31,5.14c.17,3.32-1.66,4.98-5.31,4.98Z"/>
    <path class="cls-1" d="m466.91,698.31c-14.94-15.76-41.31-5.15-41.31,17.26,0,14.43,9.94,20.9,24.05,20.9,16.26,0,24.39-6.97,24.23-20.9,0-6.65-2.32-12.28-6.97-17.26Zm-17.09,31.36c-9.96,0-14.94-4.65-14.94-13.94,0-17.75,17.42-22.73,25.72-13.11,2.82,3.15,4.14,7.46,3.98,13.11,0,9.29-4.82,13.94-14.76,13.94Z"/>
    <path class="cls-1" d="m574.93,735.64h-59.57c-4.81-.33-8.13-1.99-9.79-5.14,0,7.96.66,15.76-4.81,21.74-6.64,7.14-19.91,6.47-27.71.83l4.15-5.48c8.63,5.48,19.75,3.48,19.75-9.29v-46.46h8.63v28.04c0,5.81,4.65,8.63,10.29,8.63h44.64c-6.47-5.97-5.64-21.9-10.95-27.55-5.31-5.64-16.76-2.49-23.73.5l-3.65-6.14c8.46-4.81,24.72-6.8,32.85-.33,3.48,2.82,5.81,7.8,7.14,14.93,1.66,9.46,4.15,15.6,7.47,18.58h19.58v-61.56h9.29v68.7h-23.56Z"/>
    <rect class="cls-9" x="615.91" y="666.94" width="9.29" height="68.7"/>
    <path class="cls-1" d="m683.28,683.54c-3.65,0-5.31-1.66-5.31-4.98s1.83-5.14,5.31-5.14,5.48,1.66,5.48,5.14-1.83,4.98-5.48,4.98Z"/>
    <path class="cls-1" d="m699.21,683.54c-3.65,0-5.48-1.66-5.48-4.98s1.83-5.14,5.48-5.14,5.31,1.66,5.31,5.14-1.66,4.98-5.31,4.98Z"/>
    <path class="cls-1" d="m749.33,683.54c-3.65,0-5.48-1.66-5.48-4.98s1.83-5.14,5.48-5.14,5.31,1.66,5.31,5.14-1.83,4.98-5.31,4.98Z"/>
    <path class="cls-1" d="m765.09,683.54c-3.65,0-5.31-1.66-5.31-4.98s1.83-5.14,5.31-5.14,5.48,1.66,5.48,5.14-1.83,4.98-5.48,4.98Z"/>
    <path class="cls-1" d="m886.22,683.54c-3.65,0-5.31-1.66-5.31-4.98s1.83-5.14,5.31-5.14,5.31,1.66,5.31,5.14c.17,3.32-1.66,4.98-5.31,4.98Z"/>
    <path class="cls-1" d="m982.8,666.94v61.56h-30.21c14.11-8.62,11.45-37.67-15.26-37.67s-28.21,27.55-20.9,37.67h-15.11c-5.63,0-10.28-2.82-10.28-8.62v-28.04h-9.3v36.84h-12.11c-3.48,0-6.81-.33-9.13-2.32-3.82-2.99-2.82-8.14-2.82-12.45,0-15.26-7.97-22.89-23.73-22.89-12.44,0-22.06,6.79-28.7,20.41v-44.3h-8.8v61.56h-22.57v-36.84h-13.6c-30.53,0-33.52,26.55-23.07,36.84h-26.55v-36.84h-15.59c-15.11,0-28.38,7.46-28.38,23.23,0,13.78,10.12,20.58,23.56,20.58h115v-6.97c2.82,4.65,6.3,6.97,10.61,6.97h41.82v-5.15c.83,1.59,2.07,2.79,3.71,3.64,1.64.84,3.67,1.33,6.07,1.51h23.57v-5.15c1.99,3.48,5.81,5.15,11.61,5.15h89.43v-68.7h-9.29Zm-281.09,61.56h-11.79c-9.45,0-14.1-4.47-14.1-13.6,0-4.98,1.82-8.96,5.14-11.79,5.43-4.62,13.16-4.31,20.74-4.31v29.7Zm63.06,0c-11.29,0-23.89,1.83-23.89-13.6,0-4.98,1.66-8.96,5.14-11.79,5.1-4.12,11.67-4.31,18.75-4.31v29.7Zm84.12,0h-33.36c-5.63,0-9.12-2.66-9.94-7.8,7.13-15.1,15.92-22.73,26.55-22.73s16.75,5.47,16.75,16.26v14.27Zm98.23-4.15c-5.31,5.31-14.27,4.32-21.57,4.32-2.48-2.83-3.64-7.3-3.64-13.44,0-17.59,17.42-21.41,25.55-13.44,5.65,5.47,4.98,17.26-.33,22.56Z"/>
    <rect class="cls-9" x="1009.51" y="666.94" width="9.29" height="68.7"/>
    <path class="cls-7" d="m126.58,833.71c-1.99,0-3.48.17-4.48.33l-2.82-31.36c-.5-4.31-1.16-8.46-1.66-12.78-6.97,12.28-13.77,23.73-20.08,36.51-1.16,2.32-2.32,4.65-3.48,6.97h-1l-15.93-30.7c-2.16-3.82-4.48-8.13-6.97-12.78l-3.98,33.68-.33,10.45h-6.31c0-2.99,2.49-14.6,2.99-18.58l4.31-31.2,1.33-9.96h1.49c8.3,15.6,16.59,31.36,25.72,46.3l22.07-38.99c1.83-2.99,3.15-5.48,4.31-7.3h1.16l5.81,49.45c.66,4.31,1,7.8,1.33,10.29-1.33-.17-2.49-.33-3.48-.33h0Z"/>
    <path class="cls-7" d="m153.12,810.48l1,23.56h-8.96c.66-13.61,1.33-26.72,1.16-40.49l-.33-18.25c3.98.33,5.97.83,8.3-.17l-1.16,35.34Z"/>
    <path class="cls-7" d="m183.66,797.87c3.82,1.99,7.96,2.82,11.62,4.81,2.82,1.66,4.81,2.82,5.48,3.82,11.28,13.27-3.82,34.18-26.38,27.21-2.82-.83-4.98-1.99-6.47-3.48.83-1.99,1.33-4.48,1.66-7.47h1c3.65,5.64,7.63,8.79,14.27,8.79,6.97,0,12.45-5.48,12.45-12.45,0-15.43-27.88-9.62-27.88-28.54,0-17.42,23.4-20.08,32.52-12.45-.66,1.33-1.49,3.82-2.49,7.14h-.66c-4.48-11.95-22.24-9.46-22.24,2.49,0,4.98,2.99,8.13,7.14,10.12Z"/>
    <path class="cls-7" d="m271.27,785.59l-.83,23.89c-.33,7.96-1.66,14.44-6.47,18.92-8.79,8.13-23.73,8.63-34.35,3.48-3.98-1.83-7.8-6.31-8.96-10.95-1.66-6.8-1-13.61-.83-20.91.17-6.31.17-19.25-.5-25.06h8.63l-1,33.19c0,7.63,1,15.27,7.14,19.58,9.62,6.64,29.87,5.31,31.53-14.27,1-12.28.5-25.39.17-38.33h6.31l-.83,10.45Z"/>
    <path class="cls-7" d="m329.51,827.24l-18.42-22.57c24.56-4.15,20.92-25.55,9.62-28.54-6.63-1.83-15.59-1-22.89-1l-6.97-.33.49,18.93-.33,30.19-.33,9.96h8.3l-.33-28.54h3.32c7.96,9.12,15.92,18.58,23.05,28.54l4.98-.33,5.31.49-5.81-6.79Zm-31.2-25.05l.33-23.73h12.95c9.78,1.32,12.93,12.61,6.63,19.07-5.31,5.49-12.77,4.66-19.92,4.66Z"/>
    <path class="cls-7" d="m395.05,830.89l-25.22-56.92h-1.83l-27.87,60.07c2.48-.33,4.65-.49,6.46,0,1.5-4.65,4.49-12.28,8.8-23.07l11.95-.32,10.79.32c3.16,7.64,6.65,15.27,9.13,23.07,1.16-.16,2.66-.33,4.98-.33,1,0,2.48.17,4.31.33l-1.5-3.15Zm-37.99-23.56l9.78-22.06,9.78,22.06h-19.57Z"/>
    <path class="cls-7" d="m445.83,780.28l-16.26-.83c-.66,3.65-.5,41.98-.33,45.3l.66,9.13c-2.99-.33-5.97-.5-8.79,0,.83-4.15,1-46.63,1-54.76l-19.75,1c.17-1.16.17-2.82.17-5.14l23.89.66,22.24-.66v5.48c-1.49-.17-2.32-.17-2.82-.17Z"/>
    <path class="cls-7" d="m508.55,830.89l-25.22-56.92h-1.83l-27.88,60.07c2.5-.33,4.66-.49,6.47,0,1.5-4.65,4.49-12.28,8.8-23.07l11.95-.32,10.63.32c3.15,7.64,6.63,15.27,9.12,23.07,1.16-.16,2.66-.33,4.98-.33,1,0,2.5.17,4.49.33l-1.5-3.15Zm-38.16-23.56l9.78-22.06,9.8,22.06h-19.58Z"/>
    <path class="cls-7" d="m582.4,779.94l-19.75-.5-.33,21.74,17.75-.5c1.83-.17,2.99-.17,3.98-.17-.66,3.65-.66,1.49,0,5.14-7.96-.83-14.1-.66-21.74-.66l.17,29.04h-8.13l.5-10.79.17-29.54-.5-18.58c11.28.33,20.08.5,31.69,0,0,1.66-.5,3.48,0,5.14-1-.17-2.16-.33-3.82-.33Z"/>
    <path class="cls-7" d="m640.3,827.24l-18.41-22.57c24.55-4.15,20.9-25.55,9.62-28.54-6.65-1.83-15.6-1-22.91-1l-6.97-.33.49,18.93-.33,30.19-.33,9.96h8.3l-.33-28.54h3.32c7.96,9.12,15.92,18.58,23.07,28.54l4.98-.33,5.3.49-5.81-6.79Zm-31.2-25.05l.33-23.73h12.95c9.78,1.32,12.93,12.61,6.63,19.07-5.14,5.49-12.61,4.66-19.92,4.66Z"/>
    <path class="cls-7" d="m672.83,833.54l-15.27.33.5-10.79.17-29.54-.5-18.58c11.28.33,20.08.5,31.69,0,0,1.66-.5,3.48,0,5.14l-16.93-.83h-6.64l-.33,21.74,17.75-.5c1.83-.17,2.99-.17,3.98-.17-.66,3.65-.66,1.49,0,5.14-7.96-.83-14.1-.66-21.74-.66l.17,25.22c6.97,0,17.26,0,24.06-1.16,0,2.32,0,3.98.17,5.14l-17.09-.5Z"/>
    <path class="cls-7" d="m719.46,833.54l-15.27.33.5-10.79.17-29.54-.5-18.58c11.28.33,20.08.5,31.69,0,0,1.66-.5,3.48,0,5.14l-16.93-.83h-6.64l-.33,21.74,17.75-.5c1.83-.17,2.99-.17,3.98-.17-.66,3.65-.66,1.49,0,5.14-7.96-.83-14.1-.66-21.74-.66l.17,25.22c6.97,0,17.26,0,24.06-1.16,0,2.32,0,3.98.17,5.14l-17.09-.5Z"/>
    <path class="cls-7" d="m796.62,818.44l-7.47,11.12.33.5c12.78,0,25.55-.33,38.33-1.33-.66,1.99-.5,2.99-.17,5.31l-34.18-.33-16.1.33v-1.33l25.89-35.34c5.97-8.13,10.12-14.1,12.78-18.09l-35.01,1.16c.33-2.16.5-3.65,0-5.14,7.96.33,42.65.66,46.96,0v1.16l-10.62,13.27-20.74,28.71Z"/>
    <path class="cls-7" d="m869.29,773.63c-17.91,0-32.85,12.45-32.85,31.04,0,2.16,0,4.31.33,6.47,4.14,23.89,32.52,29.21,49.94,20.24,10.79-5.47,16.43-15.92,16.43-28.03,0-19.25-15.1-29.71-33.85-29.71Zm0,59.08c-21.73,0-28.7-22.57-21.9-40.99,7.8-20.9,40.17-19.74,45.8,1.83.83,2.99,1.16,6.63,1.16,10.63,0,14.76-9.12,28.54-25.05,28.54Z"/>
    <path class="cls-7" d="m970.18,777.12c-1,19.75-1.83,38.16-1.33,57.91h-1.16c-14.77-16.43-29.54-31.36-44.97-47.29-.17,11.12-.5,26.88,0,38l.5,8.3h-5.97c1.49-21.07,1.33-39.33,1.33-60.23h1.49l44.47,45.96c.5-4.98.66-40.82-.17-44.64h6.14l-.33,1.99Z"/>
    <path class="cls-7" d="m996.07,822.42c0,3.32,0,5.81.17,7.47,6.97,0,17.26,0,24.06-1.16,0,2.32,0,3.98.17,5.14h-28.54c-1.66,0-2.99,0-3.82,0l.5-10.79.17-29.54-.5-18.58c11.28.33,20.08.5,31.69,0,0,1.66-.5,3.48,0,5.14l-16.93-.83h-6.64l-.33,21.74,17.75-.5c1.83-.17,2.99-.17,3.98-.17-.66,3.65-.66,1.49,0,5.14-7.96-.83-14.1-.66-21.74-.66v17.59Z"/>
  </g>
</svg>